# xmcd
#
# Track frame offsets: 
#        150
#        1330
#        14097
#        15440
#        29015
#        44855
#        45927
#        61517
#        81912
#        101475
#        112227
#        113675
#        137787
#        159252
#        182525
#        198267
#        214422
#        215930
#        229965
#
# Disc length: 3349 seconds
#
# Revision: 5
# Processed by: cddbd v1.5.2PL0 Copyright (c) Steve Scherf et al.
# Submitted via: ExactAudioCopy v0.99pb5
#
DISCID=0a0d1313
DTITLE=Various Artist - Contact! The All-Star Collection
DYEAR=1994
DGENRE=Rock
TTITLE0=Announcer - Introduction of Referee
TTITLE1=Hit Me With Your Best Shot - Pat Benatar
TTITLE2=A Crowd - Crowd Stomp Clip
TTITLE3=Rock 'N Roll Part II - Gary Glitter
TTITLE4=No Limit - 2 Unlimited
TTITLE5=A Crowd - Go Team Go Chant
TTITLE6=Born To Be Wild - Steppenwolf
TTITLE7=95 South - Whoot, There It Is
TTITLE8=Oh What A Feeling - Crowbar
TTITLE9=The Goods - The Hockey Song
TTITLE10=A Crowd - Momentum Clip
TTITLE11=Move This (Shake That Body) - Technotronic
TTITLE12=Takin' Care Of Business - BTO
TTITLE13=Final Countdown - Europe
TTITLE14=Jughead - Hockey Song
TTITLE15=The Nylons - (Na Na Hey Hey) Kiss Him Goodbye
TTITLE16=Announcer - Play-by-Play Clip
TTITLE17=The Hockey Night In Canada Theme - The Shuffle Demons
TTITLE18=Bob and Doug McKenzie - Take Off
EXTD=
EXTT0=
EXTT1=
EXTT2=
EXTT3=
EXTT4=
EXTT5=
EXTT6=
EXTT7=
EXTT8=
EXTT9=
EXTT10=
EXTT11=
EXTT12=
EXTT13=
EXTT14=
EXTT15=
EXTT16=
EXTT17=
EXTT18=
PLAYORDER=
